# xmcd
#
# Track frame offsets: 
#        150
#        31163
#        61374
#        98750
#        118794
#        146260
#        163863
#        196216
#        231585
#        256474
#        281832
#
# Disc length: 4069 seconds
#
# Revision: 0
# Processed by: cddbd v1.5.2PL0 Copyright (c) Steve Scherf et al.
# Submitted via: ExactAudioCopy v1.3
#
DISCID=9f0fe30b
DTITLE=Franck Goldwasser and Vincent Bucher - Jumpin' at La Java (Live)
DYEAR=2012
DGENRE=Blues
TTITLE0=Stranger Blues (Live)
TTITLE1=Sweet Lovin' Mama (Live)
TTITLE2=Bleedin' Heart (Live)
TTITLE3=Let's Talk About Love (Live)
TTITLE4=I'm a Lover Not a Fighter (Live)
TTITLE5=Jumpin' at La Java (Live)
TTITLE6=Bad News This Morning (Live)
TTITLE7=You're Welcome to the Club (Live)
TTITLE8=Can't Raise Me (Live)
TTITLE9=Bloody Tears (Live)
TTITLE10=Gonna Stick to You Baby (Live)
EXTD=
EXTT0=
EXTT1=
EXTT2=
EXTT3=
EXTT4=
EXTT5=
EXTT6=
EXTT7=
EXTT8=
EXTT9=
EXTT10=
PLAYORDER=
